M48
; DRILL file {KiCad (5.1.9)-1} date 04/08/21 02:55:53
; FORMAT={-:-/ absolute / inch / decimal}
; #@! TF.CreationDate,2021-04-08T02:55:53+03:00
; #@! TF.GenerationSoftware,Kicad,Pcbnew,(5.1.9)-1
; #@! TF.FileFunction,Plated,1,2,PTH
FMAT,2
INCH
T1C0.0300
T2C0.0394
%
G90
G05
T1
X2.7Y-1.4
X2.7Y-1.6
T2
X1.7Y-1.2
X1.7Y-1.3
X1.7Y-1.4
X1.7Y-1.5
X1.7Y-1.6
X1.7Y-1.7
X1.7Y-1.8
X1.7Y-1.9
X1.9Y-1.5
X1.9Y-1.6
X2.0Y-1.5
X2.0Y-1.6
X2.1Y-1.5
X2.1Y-1.6
X2.2Y-1.5
X2.2Y-1.6
X2.6Y-1.2
X2.6Y-1.3
X2.6Y-1.4
X2.6Y-1.5
X2.6Y-1.6
X2.6Y-1.7
X2.6Y-1.8
X2.6Y-1.9
T0
M30
