%TF.GenerationSoftware,KiCad,Pcbnew,(5.1.9)-1*%
%TF.CreationDate,2021-04-08T10:19:59+03:00*%
%TF.ProjectId,esp32camturrent,65737033-3263-4616-9d74-757272656e74,rev?*%
%TF.SameCoordinates,Original*%
%TF.FileFunction,Copper,L2,Bot*%
%TF.FilePolarity,Positive*%
%FSLAX46Y46*%
G04 Gerber Fmt 4.6, Leading zero omitted, Abs format (unit mm)*
G04 Created by KiCad (PCBNEW (5.1.9)-1) date 2021-04-08 10:19:59*
%MOMM*%
%LPD*%
G01*
G04 APERTURE LIST*
%TA.AperFunction,ComponentPad*%
%ADD10R,1.700000X1.700000*%
%TD*%
%TA.AperFunction,ComponentPad*%
%ADD11O,1.700000X1.700000*%
%TD*%
%TA.AperFunction,ComponentPad*%
%ADD12C,1.524000*%
%TD*%
%TA.AperFunction,Conductor*%
%ADD13C,0.250000*%
%TD*%
%TA.AperFunction,Conductor*%
%ADD14C,1.000000*%
%TD*%
%TA.AperFunction,Conductor*%
%ADD15C,0.254000*%
%TD*%
%TA.AperFunction,Conductor*%
%ADD16C,0.100000*%
%TD*%
G04 APERTURE END LIST*
D10*
%TO.P,J1,1*%
%TO.N,+5V*%
X43180000Y-30480000D03*
D11*
%TO.P,J1,2*%
%TO.N,GND*%
X43180000Y-33020000D03*
%TO.P,J1,3*%
%TO.N,Net-(J1-Pad3)*%
X43180000Y-35560000D03*
%TO.P,J1,4*%
%TO.N,Net-(J1-Pad4)*%
X43180000Y-38100000D03*
%TO.P,J1,5*%
%TO.N,Net-(J1-Pad5)*%
X43180000Y-40640000D03*
%TO.P,J1,6*%
%TO.N,Net-(J1-Pad6)*%
X43180000Y-43180000D03*
%TO.P,J1,7*%
%TO.N,Net-(J1-Pad7)*%
X43180000Y-45720000D03*
%TO.P,J1,8*%
%TO.N,Net-(J1-Pad8)*%
X43180000Y-48260000D03*
%TD*%
%TO.P,J2,8*%
%TO.N,Net-(J2-Pad8)*%
X66040000Y-48260000D03*
%TO.P,J2,7*%
%TO.N,U0T*%
X66040000Y-45720000D03*
%TO.P,J2,6*%
%TO.N,U0R*%
X66040000Y-43180000D03*
%TO.P,J2,5*%
%TO.N,Net-(J2-Pad5)*%
X66040000Y-40640000D03*
%TO.P,J2,4*%
%TO.N,GND*%
X66040000Y-38100000D03*
%TO.P,J2,3*%
%TO.N,I00*%
X66040000Y-35560000D03*
%TO.P,J2,2*%
%TO.N,I06*%
X66040000Y-33020000D03*
D10*
%TO.P,J2,1*%
%TO.N,Net-(J2-Pad1)*%
X66040000Y-30480000D03*
%TD*%
%TO.P,J4,1*%
%TO.N,U0R*%
X55880000Y-38100000D03*
D11*
%TO.P,J4,2*%
%TO.N,U0T*%
X55880000Y-40640000D03*
%TO.P,J4,3*%
%TO.N,+5V*%
X53340000Y-38100000D03*
%TO.P,J4,4*%
X53340000Y-40640000D03*
%TO.P,J4,5*%
%TO.N,GND*%
X50800000Y-38100000D03*
%TO.P,J4,6*%
X50800000Y-40640000D03*
%TO.P,J4,7*%
%TO.N,+5V*%
X48260000Y-38100000D03*
%TO.P,J4,8*%
%TO.N,GND*%
X48260000Y-40640000D03*
%TD*%
D12*
%TO.P,SW1,1*%
%TO.N,I00*%
X68580000Y-35560000D03*
%TO.P,SW1,2*%
%TO.N,GND*%
X68580000Y-40640000D03*
%TD*%
D13*
%TO.N,+5V*%
X48260000Y-38100000D02*
X48260000Y-35560000D01*
X48260000Y-35560000D02*
X48260000Y-30480000D01*
D14*
X43180000Y-30480000D02*
X45030000Y-30480000D01*
X45030000Y-30480000D02*
X48260000Y-30480000D01*
X48260000Y-30480000D02*
X48260000Y-38100000D01*
X53340000Y-35560000D02*
X53340000Y-40640000D01*
X48260000Y-35560000D02*
X53340000Y-35560000D01*
%TO.N,GND*%
X43180000Y-33020000D02*
X45720000Y-33020000D01*
X48260000Y-40640000D02*
X50800000Y-40640000D01*
X50800000Y-40640000D02*
X50800000Y-38100000D01*
X45720000Y-40640000D02*
X48260000Y-40640000D01*
X45720000Y-33020000D02*
X45720000Y-40640000D01*
X68580000Y-40640000D02*
X68580000Y-38100000D01*
X68580000Y-38100000D02*
X66040000Y-38100000D01*
%TO.N,U0T*%
X60960000Y-40640000D02*
X66040000Y-45720000D01*
X60960000Y-40640000D02*
X55880000Y-40640000D01*
%TO.N,U0R*%
X60960000Y-38100000D02*
X55880000Y-38100000D01*
X66040000Y-43180000D02*
X60960000Y-38100000D01*
%TO.N,I00*%
X68580000Y-35560000D02*
X66040000Y-35560000D01*
%TD*%
D15*
%TO.N,GND*%
X76073000Y-70993000D02*
X33147000Y-70993000D01*
X33147000Y-68414042D01*
X41495000Y-68414042D01*
X41495000Y-68745958D01*
X41559754Y-69071496D01*
X41686772Y-69378147D01*
X41871175Y-69654125D01*
X42105875Y-69888825D01*
X42381853Y-70073228D01*
X42688504Y-70200246D01*
X43014042Y-70265000D01*
X43345958Y-70265000D01*
X43671496Y-70200246D01*
X43978147Y-70073228D01*
X44254125Y-69888825D01*
X44488825Y-69654125D01*
X44673228Y-69378147D01*
X44800246Y-69071496D01*
X44865000Y-68745958D01*
X44865000Y-68414042D01*
X71975000Y-68414042D01*
X71975000Y-68745958D01*
X72039754Y-69071496D01*
X72166772Y-69378147D01*
X72351175Y-69654125D01*
X72585875Y-69888825D01*
X72861853Y-70073228D01*
X73168504Y-70200246D01*
X73494042Y-70265000D01*
X73825958Y-70265000D01*
X74151496Y-70200246D01*
X74458147Y-70073228D01*
X74734125Y-69888825D01*
X74968825Y-69654125D01*
X75153228Y-69378147D01*
X75280246Y-69071496D01*
X75345000Y-68745958D01*
X75345000Y-68414042D01*
X75280246Y-68088504D01*
X75153228Y-67781853D01*
X74968825Y-67505875D01*
X74734125Y-67271175D01*
X74458147Y-67086772D01*
X74151496Y-66959754D01*
X73825958Y-66895000D01*
X73494042Y-66895000D01*
X73168504Y-66959754D01*
X72861853Y-67086772D01*
X72585875Y-67271175D01*
X72351175Y-67505875D01*
X72166772Y-67781853D01*
X72039754Y-68088504D01*
X71975000Y-68414042D01*
X44865000Y-68414042D01*
X44800246Y-68088504D01*
X44673228Y-67781853D01*
X44488825Y-67505875D01*
X44254125Y-67271175D01*
X43978147Y-67086772D01*
X43671496Y-66959754D01*
X43345958Y-66895000D01*
X43014042Y-66895000D01*
X42688504Y-66959754D01*
X42381853Y-67086772D01*
X42105875Y-67271175D01*
X41871175Y-67505875D01*
X41686772Y-67781853D01*
X41559754Y-68088504D01*
X41495000Y-68414042D01*
X33147000Y-68414042D01*
X33147000Y-35413740D01*
X41695000Y-35413740D01*
X41695000Y-35706260D01*
X41752068Y-35993158D01*
X41864010Y-36263411D01*
X42026525Y-36506632D01*
X42233368Y-36713475D01*
X42407760Y-36830000D01*
X42233368Y-36946525D01*
X42026525Y-37153368D01*
X41864010Y-37396589D01*
X41752068Y-37666842D01*
X41695000Y-37953740D01*
X41695000Y-38246260D01*
X41752068Y-38533158D01*
X41864010Y-38803411D01*
X42026525Y-39046632D01*
X42233368Y-39253475D01*
X42407760Y-39370000D01*
X42233368Y-39486525D01*
X42026525Y-39693368D01*
X41864010Y-39936589D01*
X41752068Y-40206842D01*
X41695000Y-40493740D01*
X41695000Y-40786260D01*
X41752068Y-41073158D01*
X41864010Y-41343411D01*
X42026525Y-41586632D01*
X42233368Y-41793475D01*
X42407760Y-41910000D01*
X42233368Y-42026525D01*
X42026525Y-42233368D01*
X41864010Y-42476589D01*
X41752068Y-42746842D01*
X41695000Y-43033740D01*
X41695000Y-43326260D01*
X41752068Y-43613158D01*
X41864010Y-43883411D01*
X42026525Y-44126632D01*
X42233368Y-44333475D01*
X42407760Y-44450000D01*
X42233368Y-44566525D01*
X42026525Y-44773368D01*
X41864010Y-45016589D01*
X41752068Y-45286842D01*
X41695000Y-45573740D01*
X41695000Y-45866260D01*
X41752068Y-46153158D01*
X41864010Y-46423411D01*
X42026525Y-46666632D01*
X42233368Y-46873475D01*
X42407760Y-46990000D01*
X42233368Y-47106525D01*
X42026525Y-47313368D01*
X41864010Y-47556589D01*
X41752068Y-47826842D01*
X41695000Y-48113740D01*
X41695000Y-48406260D01*
X41752068Y-48693158D01*
X41864010Y-48963411D01*
X42026525Y-49206632D01*
X42233368Y-49413475D01*
X42476589Y-49575990D01*
X42746842Y-49687932D01*
X43033740Y-49745000D01*
X43326260Y-49745000D01*
X43613158Y-49687932D01*
X43883411Y-49575990D01*
X44126632Y-49413475D01*
X44333475Y-49206632D01*
X44495990Y-48963411D01*
X44607932Y-48693158D01*
X44665000Y-48406260D01*
X44665000Y-48113740D01*
X44607932Y-47826842D01*
X44495990Y-47556589D01*
X44333475Y-47313368D01*
X44126632Y-47106525D01*
X43952240Y-46990000D01*
X44126632Y-46873475D01*
X44333475Y-46666632D01*
X44495990Y-46423411D01*
X44607932Y-46153158D01*
X44665000Y-45866260D01*
X44665000Y-45573740D01*
X44607932Y-45286842D01*
X44495990Y-45016589D01*
X44333475Y-44773368D01*
X44126632Y-44566525D01*
X43952240Y-44450000D01*
X44126632Y-44333475D01*
X44333475Y-44126632D01*
X44495990Y-43883411D01*
X44607932Y-43613158D01*
X44665000Y-43326260D01*
X44665000Y-43033740D01*
X44607932Y-42746842D01*
X44495990Y-42476589D01*
X44333475Y-42233368D01*
X44126632Y-42026525D01*
X43952240Y-41910000D01*
X44126632Y-41793475D01*
X44333475Y-41586632D01*
X44495990Y-41343411D01*
X44607932Y-41073158D01*
X44623102Y-40996891D01*
X46818519Y-40996891D01*
X46915843Y-41271252D01*
X47064822Y-41521355D01*
X47259731Y-41737588D01*
X47493080Y-41911641D01*
X47755901Y-42036825D01*
X47903110Y-42081476D01*
X48133000Y-41960155D01*
X48133000Y-40767000D01*
X48387000Y-40767000D01*
X48387000Y-41960155D01*
X48616890Y-42081476D01*
X48764099Y-42036825D01*
X49026920Y-41911641D01*
X49260269Y-41737588D01*
X49455178Y-41521355D01*
X49530000Y-41395745D01*
X49604822Y-41521355D01*
X49799731Y-41737588D01*
X50033080Y-41911641D01*
X50295901Y-42036825D01*
X50443110Y-42081476D01*
X50673000Y-41960155D01*
X50673000Y-40767000D01*
X48387000Y-40767000D01*
X48133000Y-40767000D01*
X46939186Y-40767000D01*
X46818519Y-40996891D01*
X44623102Y-40996891D01*
X44665000Y-40786260D01*
X44665000Y-40493740D01*
X44607932Y-40206842D01*
X44495990Y-39936589D01*
X44333475Y-39693368D01*
X44126632Y-39486525D01*
X43952240Y-39370000D01*
X44126632Y-39253475D01*
X44333475Y-39046632D01*
X44495990Y-38803411D01*
X44607932Y-38533158D01*
X44665000Y-38246260D01*
X44665000Y-37953740D01*
X44607932Y-37666842D01*
X44495990Y-37396589D01*
X44333475Y-37153368D01*
X44126632Y-36946525D01*
X43952240Y-36830000D01*
X44126632Y-36713475D01*
X44333475Y-36506632D01*
X44495990Y-36263411D01*
X44607932Y-35993158D01*
X44665000Y-35706260D01*
X44665000Y-35413740D01*
X44607932Y-35126842D01*
X44495990Y-34856589D01*
X44333475Y-34613368D01*
X44126632Y-34406525D01*
X43944466Y-34284805D01*
X44061355Y-34215178D01*
X44277588Y-34020269D01*
X44451641Y-33786920D01*
X44576825Y-33524099D01*
X44621476Y-33376890D01*
X44500155Y-33147000D01*
X43307000Y-33147000D01*
X43307000Y-33167000D01*
X43053000Y-33167000D01*
X43053000Y-33147000D01*
X41859845Y-33147000D01*
X41738524Y-33376890D01*
X41783175Y-33524099D01*
X41908359Y-33786920D01*
X42082412Y-34020269D01*
X42298645Y-34215178D01*
X42415534Y-34284805D01*
X42233368Y-34406525D01*
X42026525Y-34613368D01*
X41864010Y-34856589D01*
X41752068Y-35126842D01*
X41695000Y-35413740D01*
X33147000Y-35413740D01*
X33147000Y-30314042D01*
X33875000Y-30314042D01*
X33875000Y-30645958D01*
X33939754Y-30971496D01*
X34066772Y-31278147D01*
X34251175Y-31554125D01*
X34485875Y-31788825D01*
X34761853Y-31973228D01*
X35068504Y-32100246D01*
X35394042Y-32165000D01*
X35725958Y-32165000D01*
X36051496Y-32100246D01*
X36358147Y-31973228D01*
X36634125Y-31788825D01*
X36868825Y-31554125D01*
X37053228Y-31278147D01*
X37180246Y-30971496D01*
X37245000Y-30645958D01*
X37245000Y-30314042D01*
X37180246Y-29988504D01*
X37053228Y-29681853D01*
X37018581Y-29630000D01*
X41691928Y-29630000D01*
X41691928Y-31330000D01*
X41704188Y-31454482D01*
X41740498Y-31574180D01*
X41799463Y-31684494D01*
X41878815Y-31781185D01*
X41975506Y-31860537D01*
X42085820Y-31919502D01*
X42166466Y-31943966D01*
X42082412Y-32019731D01*
X41908359Y-32253080D01*
X41783175Y-32515901D01*
X41738524Y-32663110D01*
X41859845Y-32893000D01*
X43053000Y-32893000D01*
X43053000Y-32873000D01*
X43307000Y-32873000D01*
X43307000Y-32893000D01*
X44500155Y-32893000D01*
X44621476Y-32663110D01*
X44576825Y-32515901D01*
X44451641Y-32253080D01*
X44277588Y-32019731D01*
X44193534Y-31943966D01*
X44274180Y-31919502D01*
X44384494Y-31860537D01*
X44481185Y-31781185D01*
X44560537Y-31684494D01*
X44597683Y-31615000D01*
X47125000Y-31615000D01*
X47125001Y-35504242D01*
X47119509Y-35560000D01*
X47125001Y-35615758D01*
X47125001Y-37134892D01*
X47106525Y-37153368D01*
X46944010Y-37396589D01*
X46832068Y-37666842D01*
X46775000Y-37953740D01*
X46775000Y-38246260D01*
X46832068Y-38533158D01*
X46944010Y-38803411D01*
X47106525Y-39046632D01*
X47313368Y-39253475D01*
X47489406Y-39371100D01*
X47259731Y-39542412D01*
X47064822Y-39758645D01*
X46915843Y-40008748D01*
X46818519Y-40283109D01*
X46939186Y-40513000D01*
X48133000Y-40513000D01*
X48133000Y-40493000D01*
X48387000Y-40493000D01*
X48387000Y-40513000D01*
X50673000Y-40513000D01*
X50673000Y-38227000D01*
X50653000Y-38227000D01*
X50653000Y-37973000D01*
X50673000Y-37973000D01*
X50673000Y-37953000D01*
X50927000Y-37953000D01*
X50927000Y-37973000D01*
X50947000Y-37973000D01*
X50947000Y-38227000D01*
X50927000Y-38227000D01*
X50927000Y-40513000D01*
X50947000Y-40513000D01*
X50947000Y-40767000D01*
X50927000Y-40767000D01*
X50927000Y-41960155D01*
X51156890Y-42081476D01*
X51304099Y-42036825D01*
X51566920Y-41911641D01*
X51800269Y-41737588D01*
X51995178Y-41521355D01*
X52064805Y-41404466D01*
X52186525Y-41586632D01*
X52393368Y-41793475D01*
X52636589Y-41955990D01*
X52906842Y-42067932D01*
X53193740Y-42125000D01*
X53486260Y-42125000D01*
X53773158Y-42067932D01*
X54043411Y-41955990D01*
X54286632Y-41793475D01*
X54493475Y-41586632D01*
X54610000Y-41412240D01*
X54726525Y-41586632D01*
X54933368Y-41793475D01*
X55176589Y-41955990D01*
X55446842Y-42067932D01*
X55733740Y-42125000D01*
X56026260Y-42125000D01*
X56313158Y-42067932D01*
X56583411Y-41955990D01*
X56826632Y-41793475D01*
X56845107Y-41775000D01*
X60489869Y-41775000D01*
X64555000Y-45840132D01*
X64555000Y-45866260D01*
X64612068Y-46153158D01*
X64724010Y-46423411D01*
X64886525Y-46666632D01*
X65093368Y-46873475D01*
X65267760Y-46990000D01*
X65093368Y-47106525D01*
X64886525Y-47313368D01*
X64724010Y-47556589D01*
X64612068Y-47826842D01*
X64555000Y-48113740D01*
X64555000Y-48406260D01*
X64612068Y-48693158D01*
X64724010Y-48963411D01*
X64886525Y-49206632D01*
X65093368Y-49413475D01*
X65336589Y-49575990D01*
X65606842Y-49687932D01*
X65893740Y-49745000D01*
X66186260Y-49745000D01*
X66473158Y-49687932D01*
X66743411Y-49575990D01*
X66986632Y-49413475D01*
X67193475Y-49206632D01*
X67355990Y-48963411D01*
X67467932Y-48693158D01*
X67525000Y-48406260D01*
X67525000Y-48113740D01*
X67467932Y-47826842D01*
X67355990Y-47556589D01*
X67193475Y-47313368D01*
X66986632Y-47106525D01*
X66812240Y-46990000D01*
X66986632Y-46873475D01*
X67193475Y-46666632D01*
X67355990Y-46423411D01*
X67467932Y-46153158D01*
X67525000Y-45866260D01*
X67525000Y-45573740D01*
X67467932Y-45286842D01*
X67355990Y-45016589D01*
X67193475Y-44773368D01*
X66986632Y-44566525D01*
X66812240Y-44450000D01*
X66986632Y-44333475D01*
X67193475Y-44126632D01*
X67355990Y-43883411D01*
X67467932Y-43613158D01*
X67525000Y-43326260D01*
X67525000Y-43033740D01*
X67467932Y-42746842D01*
X67355990Y-42476589D01*
X67193475Y-42233368D01*
X66986632Y-42026525D01*
X66812240Y-41910000D01*
X66986632Y-41793475D01*
X67174542Y-41605565D01*
X67794040Y-41605565D01*
X67861020Y-41845656D01*
X68110048Y-41962756D01*
X68377135Y-42029023D01*
X68652017Y-42041910D01*
X68924133Y-42000922D01*
X69183023Y-41907636D01*
X69298980Y-41845656D01*
X69365960Y-41605565D01*
X68580000Y-40819605D01*
X67794040Y-41605565D01*
X67174542Y-41605565D01*
X67193475Y-41586632D01*
X67355990Y-41343411D01*
X67360370Y-41332837D01*
X67374344Y-41358980D01*
X67614435Y-41425960D01*
X68400395Y-40640000D01*
X68759605Y-40640000D01*
X69545565Y-41425960D01*
X69785656Y-41358980D01*
X69902756Y-41109952D01*
X69969023Y-40842865D01*
X69981910Y-40567983D01*
X69940922Y-40295867D01*
X69847636Y-40036977D01*
X69785656Y-39921020D01*
X69545565Y-39854040D01*
X68759605Y-40640000D01*
X68400395Y-40640000D01*
X67614435Y-39854040D01*
X67374344Y-39921020D01*
X67361157Y-39949064D01*
X67355990Y-39936589D01*
X67193475Y-39693368D01*
X67174542Y-39674435D01*
X67794040Y-39674435D01*
X68580000Y-40460395D01*
X69365960Y-39674435D01*
X69298980Y-39434344D01*
X69049952Y-39317244D01*
X68782865Y-39250977D01*
X68507983Y-39238090D01*
X68235867Y-39279078D01*
X67976977Y-39372364D01*
X67861020Y-39434344D01*
X67794040Y-39674435D01*
X67174542Y-39674435D01*
X66986632Y-39486525D01*
X66804466Y-39364805D01*
X66921355Y-39295178D01*
X67137588Y-39100269D01*
X67311641Y-38866920D01*
X67436825Y-38604099D01*
X67481476Y-38456890D01*
X67360155Y-38227000D01*
X66167000Y-38227000D01*
X66167000Y-38247000D01*
X65913000Y-38247000D01*
X65913000Y-38227000D01*
X64719845Y-38227000D01*
X64598524Y-38456890D01*
X64643175Y-38604099D01*
X64768359Y-38866920D01*
X64942412Y-39100269D01*
X65158645Y-39295178D01*
X65275534Y-39364805D01*
X65093368Y-39486525D01*
X64886525Y-39693368D01*
X64724010Y-39936589D01*
X64629614Y-40164482D01*
X61801996Y-37336865D01*
X61766449Y-37293551D01*
X61593623Y-37151716D01*
X61396447Y-37046324D01*
X61182499Y-36981423D01*
X61015752Y-36965000D01*
X61015751Y-36965000D01*
X60960000Y-36959509D01*
X60904249Y-36965000D01*
X57297683Y-36965000D01*
X57260537Y-36895506D01*
X57181185Y-36798815D01*
X57084494Y-36719463D01*
X56974180Y-36660498D01*
X56854482Y-36624188D01*
X56730000Y-36611928D01*
X55030000Y-36611928D01*
X54905518Y-36624188D01*
X54785820Y-36660498D01*
X54675506Y-36719463D01*
X54578815Y-36798815D01*
X54499463Y-36895506D01*
X54475000Y-36941272D01*
X54475000Y-35615752D01*
X54480491Y-35560000D01*
X54458577Y-35337501D01*
X54393676Y-35123553D01*
X54288284Y-34926377D01*
X54146449Y-34753551D01*
X53973623Y-34611716D01*
X53776447Y-34506324D01*
X53562499Y-34441423D01*
X53395752Y-34425000D01*
X53395751Y-34425000D01*
X53340000Y-34419509D01*
X53284248Y-34425000D01*
X49395000Y-34425000D01*
X49395000Y-30535752D01*
X49400491Y-30480000D01*
X49378577Y-30257501D01*
X49313676Y-30043553D01*
X49208284Y-29846377D01*
X49066449Y-29673551D01*
X49013383Y-29630000D01*
X64551928Y-29630000D01*
X64551928Y-31330000D01*
X64564188Y-31454482D01*
X64600498Y-31574180D01*
X64659463Y-31684494D01*
X64738815Y-31781185D01*
X64835506Y-31860537D01*
X64945820Y-31919502D01*
X65018380Y-31941513D01*
X64886525Y-32073368D01*
X64724010Y-32316589D01*
X64612068Y-32586842D01*
X64555000Y-32873740D01*
X64555000Y-33166260D01*
X64612068Y-33453158D01*
X64724010Y-33723411D01*
X64886525Y-33966632D01*
X65093368Y-34173475D01*
X65267760Y-34290000D01*
X65093368Y-34406525D01*
X64886525Y-34613368D01*
X64724010Y-34856589D01*
X64612068Y-35126842D01*
X64555000Y-35413740D01*
X64555000Y-35706260D01*
X64612068Y-35993158D01*
X64724010Y-36263411D01*
X64886525Y-36506632D01*
X65093368Y-36713475D01*
X65275534Y-36835195D01*
X65158645Y-36904822D01*
X64942412Y-37099731D01*
X64768359Y-37333080D01*
X64643175Y-37595901D01*
X64598524Y-37743110D01*
X64719845Y-37973000D01*
X65913000Y-37973000D01*
X65913000Y-37953000D01*
X66167000Y-37953000D01*
X66167000Y-37973000D01*
X67360155Y-37973000D01*
X67481476Y-37743110D01*
X67436825Y-37595901D01*
X67311641Y-37333080D01*
X67137588Y-37099731D01*
X66921355Y-36904822D01*
X66804466Y-36835195D01*
X66986632Y-36713475D01*
X67005107Y-36695000D01*
X67764116Y-36695000D01*
X67918273Y-36798005D01*
X68172510Y-36903314D01*
X68442408Y-36957000D01*
X68717592Y-36957000D01*
X68987490Y-36903314D01*
X69241727Y-36798005D01*
X69470535Y-36645120D01*
X69665120Y-36450535D01*
X69818005Y-36221727D01*
X69923314Y-35967490D01*
X69977000Y-35697592D01*
X69977000Y-35422408D01*
X69923314Y-35152510D01*
X69818005Y-34898273D01*
X69665120Y-34669465D01*
X69470535Y-34474880D01*
X69241727Y-34321995D01*
X68987490Y-34216686D01*
X68717592Y-34163000D01*
X68442408Y-34163000D01*
X68172510Y-34216686D01*
X67918273Y-34321995D01*
X67764116Y-34425000D01*
X67005107Y-34425000D01*
X66986632Y-34406525D01*
X66812240Y-34290000D01*
X66986632Y-34173475D01*
X67193475Y-33966632D01*
X67355990Y-33723411D01*
X67467932Y-33453158D01*
X67525000Y-33166260D01*
X67525000Y-32873740D01*
X67467932Y-32586842D01*
X67355990Y-32316589D01*
X67193475Y-32073368D01*
X67061620Y-31941513D01*
X67134180Y-31919502D01*
X67244494Y-31860537D01*
X67341185Y-31781185D01*
X67420537Y-31684494D01*
X67479502Y-31574180D01*
X67515812Y-31454482D01*
X67528072Y-31330000D01*
X67528072Y-30314042D01*
X71975000Y-30314042D01*
X71975000Y-30645958D01*
X72039754Y-30971496D01*
X72166772Y-31278147D01*
X72351175Y-31554125D01*
X72585875Y-31788825D01*
X72861853Y-31973228D01*
X73168504Y-32100246D01*
X73494042Y-32165000D01*
X73825958Y-32165000D01*
X74151496Y-32100246D01*
X74458147Y-31973228D01*
X74734125Y-31788825D01*
X74968825Y-31554125D01*
X75153228Y-31278147D01*
X75280246Y-30971496D01*
X75345000Y-30645958D01*
X75345000Y-30314042D01*
X75280246Y-29988504D01*
X75153228Y-29681853D01*
X74968825Y-29405875D01*
X74734125Y-29171175D01*
X74458147Y-28986772D01*
X74151496Y-28859754D01*
X73825958Y-28795000D01*
X73494042Y-28795000D01*
X73168504Y-28859754D01*
X72861853Y-28986772D01*
X72585875Y-29171175D01*
X72351175Y-29405875D01*
X72166772Y-29681853D01*
X72039754Y-29988504D01*
X71975000Y-30314042D01*
X67528072Y-30314042D01*
X67528072Y-29630000D01*
X67515812Y-29505518D01*
X67479502Y-29385820D01*
X67420537Y-29275506D01*
X67341185Y-29178815D01*
X67244494Y-29099463D01*
X67134180Y-29040498D01*
X67014482Y-29004188D01*
X66890000Y-28991928D01*
X65190000Y-28991928D01*
X65065518Y-29004188D01*
X64945820Y-29040498D01*
X64835506Y-29099463D01*
X64738815Y-29178815D01*
X64659463Y-29275506D01*
X64600498Y-29385820D01*
X64564188Y-29505518D01*
X64551928Y-29630000D01*
X49013383Y-29630000D01*
X48893623Y-29531716D01*
X48696447Y-29426324D01*
X48482499Y-29361423D01*
X48315752Y-29345000D01*
X48315751Y-29345000D01*
X48260000Y-29339509D01*
X48204248Y-29345000D01*
X44597683Y-29345000D01*
X44560537Y-29275506D01*
X44481185Y-29178815D01*
X44384494Y-29099463D01*
X44274180Y-29040498D01*
X44154482Y-29004188D01*
X44030000Y-28991928D01*
X42330000Y-28991928D01*
X42205518Y-29004188D01*
X42085820Y-29040498D01*
X41975506Y-29099463D01*
X41878815Y-29178815D01*
X41799463Y-29275506D01*
X41740498Y-29385820D01*
X41704188Y-29505518D01*
X41691928Y-29630000D01*
X37018581Y-29630000D01*
X36868825Y-29405875D01*
X36634125Y-29171175D01*
X36358147Y-28986772D01*
X36051496Y-28859754D01*
X35725958Y-28795000D01*
X35394042Y-28795000D01*
X35068504Y-28859754D01*
X34761853Y-28986772D01*
X34485875Y-29171175D01*
X34251175Y-29405875D01*
X34066772Y-29681853D01*
X33939754Y-29988504D01*
X33875000Y-30314042D01*
X33147000Y-30314042D01*
X33147000Y-28067000D01*
X76073000Y-28067000D01*
X76073000Y-70993000D01*
%TA.AperFunction,Conductor*%
D16*
G36*
X76073000Y-70993000D02*
G01*
X33147000Y-70993000D01*
X33147000Y-68414042D01*
X41495000Y-68414042D01*
X41495000Y-68745958D01*
X41559754Y-69071496D01*
X41686772Y-69378147D01*
X41871175Y-69654125D01*
X42105875Y-69888825D01*
X42381853Y-70073228D01*
X42688504Y-70200246D01*
X43014042Y-70265000D01*
X43345958Y-70265000D01*
X43671496Y-70200246D01*
X43978147Y-70073228D01*
X44254125Y-69888825D01*
X44488825Y-69654125D01*
X44673228Y-69378147D01*
X44800246Y-69071496D01*
X44865000Y-68745958D01*
X44865000Y-68414042D01*
X71975000Y-68414042D01*
X71975000Y-68745958D01*
X72039754Y-69071496D01*
X72166772Y-69378147D01*
X72351175Y-69654125D01*
X72585875Y-69888825D01*
X72861853Y-70073228D01*
X73168504Y-70200246D01*
X73494042Y-70265000D01*
X73825958Y-70265000D01*
X74151496Y-70200246D01*
X74458147Y-70073228D01*
X74734125Y-69888825D01*
X74968825Y-69654125D01*
X75153228Y-69378147D01*
X75280246Y-69071496D01*
X75345000Y-68745958D01*
X75345000Y-68414042D01*
X75280246Y-68088504D01*
X75153228Y-67781853D01*
X74968825Y-67505875D01*
X74734125Y-67271175D01*
X74458147Y-67086772D01*
X74151496Y-66959754D01*
X73825958Y-66895000D01*
X73494042Y-66895000D01*
X73168504Y-66959754D01*
X72861853Y-67086772D01*
X72585875Y-67271175D01*
X72351175Y-67505875D01*
X72166772Y-67781853D01*
X72039754Y-68088504D01*
X71975000Y-68414042D01*
X44865000Y-68414042D01*
X44800246Y-68088504D01*
X44673228Y-67781853D01*
X44488825Y-67505875D01*
X44254125Y-67271175D01*
X43978147Y-67086772D01*
X43671496Y-66959754D01*
X43345958Y-66895000D01*
X43014042Y-66895000D01*
X42688504Y-66959754D01*
X42381853Y-67086772D01*
X42105875Y-67271175D01*
X41871175Y-67505875D01*
X41686772Y-67781853D01*
X41559754Y-68088504D01*
X41495000Y-68414042D01*
X33147000Y-68414042D01*
X33147000Y-35413740D01*
X41695000Y-35413740D01*
X41695000Y-35706260D01*
X41752068Y-35993158D01*
X41864010Y-36263411D01*
X42026525Y-36506632D01*
X42233368Y-36713475D01*
X42407760Y-36830000D01*
X42233368Y-36946525D01*
X42026525Y-37153368D01*
X41864010Y-37396589D01*
X41752068Y-37666842D01*
X41695000Y-37953740D01*
X41695000Y-38246260D01*
X41752068Y-38533158D01*
X41864010Y-38803411D01*
X42026525Y-39046632D01*
X42233368Y-39253475D01*
X42407760Y-39370000D01*
X42233368Y-39486525D01*
X42026525Y-39693368D01*
X41864010Y-39936589D01*
X41752068Y-40206842D01*
X41695000Y-40493740D01*
X41695000Y-40786260D01*
X41752068Y-41073158D01*
X41864010Y-41343411D01*
X42026525Y-41586632D01*
X42233368Y-41793475D01*
X42407760Y-41910000D01*
X42233368Y-42026525D01*
X42026525Y-42233368D01*
X41864010Y-42476589D01*
X41752068Y-42746842D01*
X41695000Y-43033740D01*
X41695000Y-43326260D01*
X41752068Y-43613158D01*
X41864010Y-43883411D01*
X42026525Y-44126632D01*
X42233368Y-44333475D01*
X42407760Y-44450000D01*
X42233368Y-44566525D01*
X42026525Y-44773368D01*
X41864010Y-45016589D01*
X41752068Y-45286842D01*
X41695000Y-45573740D01*
X41695000Y-45866260D01*
X41752068Y-46153158D01*
X41864010Y-46423411D01*
X42026525Y-46666632D01*
X42233368Y-46873475D01*
X42407760Y-46990000D01*
X42233368Y-47106525D01*
X42026525Y-47313368D01*
X41864010Y-47556589D01*
X41752068Y-47826842D01*
X41695000Y-48113740D01*
X41695000Y-48406260D01*
X41752068Y-48693158D01*
X41864010Y-48963411D01*
X42026525Y-49206632D01*
X42233368Y-49413475D01*
X42476589Y-49575990D01*
X42746842Y-49687932D01*
X43033740Y-49745000D01*
X43326260Y-49745000D01*
X43613158Y-49687932D01*
X43883411Y-49575990D01*
X44126632Y-49413475D01*
X44333475Y-49206632D01*
X44495990Y-48963411D01*
X44607932Y-48693158D01*
X44665000Y-48406260D01*
X44665000Y-48113740D01*
X44607932Y-47826842D01*
X44495990Y-47556589D01*
X44333475Y-47313368D01*
X44126632Y-47106525D01*
X43952240Y-46990000D01*
X44126632Y-46873475D01*
X44333475Y-46666632D01*
X44495990Y-46423411D01*
X44607932Y-46153158D01*
X44665000Y-45866260D01*
X44665000Y-45573740D01*
X44607932Y-45286842D01*
X44495990Y-45016589D01*
X44333475Y-44773368D01*
X44126632Y-44566525D01*
X43952240Y-44450000D01*
X44126632Y-44333475D01*
X44333475Y-44126632D01*
X44495990Y-43883411D01*
X44607932Y-43613158D01*
X44665000Y-43326260D01*
X44665000Y-43033740D01*
X44607932Y-42746842D01*
X44495990Y-42476589D01*
X44333475Y-42233368D01*
X44126632Y-42026525D01*
X43952240Y-41910000D01*
X44126632Y-41793475D01*
X44333475Y-41586632D01*
X44495990Y-41343411D01*
X44607932Y-41073158D01*
X44623102Y-40996891D01*
X46818519Y-40996891D01*
X46915843Y-41271252D01*
X47064822Y-41521355D01*
X47259731Y-41737588D01*
X47493080Y-41911641D01*
X47755901Y-42036825D01*
X47903110Y-42081476D01*
X48133000Y-41960155D01*
X48133000Y-40767000D01*
X48387000Y-40767000D01*
X48387000Y-41960155D01*
X48616890Y-42081476D01*
X48764099Y-42036825D01*
X49026920Y-41911641D01*
X49260269Y-41737588D01*
X49455178Y-41521355D01*
X49530000Y-41395745D01*
X49604822Y-41521355D01*
X49799731Y-41737588D01*
X50033080Y-41911641D01*
X50295901Y-42036825D01*
X50443110Y-42081476D01*
X50673000Y-41960155D01*
X50673000Y-40767000D01*
X48387000Y-40767000D01*
X48133000Y-40767000D01*
X46939186Y-40767000D01*
X46818519Y-40996891D01*
X44623102Y-40996891D01*
X44665000Y-40786260D01*
X44665000Y-40493740D01*
X44607932Y-40206842D01*
X44495990Y-39936589D01*
X44333475Y-39693368D01*
X44126632Y-39486525D01*
X43952240Y-39370000D01*
X44126632Y-39253475D01*
X44333475Y-39046632D01*
X44495990Y-38803411D01*
X44607932Y-38533158D01*
X44665000Y-38246260D01*
X44665000Y-37953740D01*
X44607932Y-37666842D01*
X44495990Y-37396589D01*
X44333475Y-37153368D01*
X44126632Y-36946525D01*
X43952240Y-36830000D01*
X44126632Y-36713475D01*
X44333475Y-36506632D01*
X44495990Y-36263411D01*
X44607932Y-35993158D01*
X44665000Y-35706260D01*
X44665000Y-35413740D01*
X44607932Y-35126842D01*
X44495990Y-34856589D01*
X44333475Y-34613368D01*
X44126632Y-34406525D01*
X43944466Y-34284805D01*
X44061355Y-34215178D01*
X44277588Y-34020269D01*
X44451641Y-33786920D01*
X44576825Y-33524099D01*
X44621476Y-33376890D01*
X44500155Y-33147000D01*
X43307000Y-33147000D01*
X43307000Y-33167000D01*
X43053000Y-33167000D01*
X43053000Y-33147000D01*
X41859845Y-33147000D01*
X41738524Y-33376890D01*
X41783175Y-33524099D01*
X41908359Y-33786920D01*
X42082412Y-34020269D01*
X42298645Y-34215178D01*
X42415534Y-34284805D01*
X42233368Y-34406525D01*
X42026525Y-34613368D01*
X41864010Y-34856589D01*
X41752068Y-35126842D01*
X41695000Y-35413740D01*
X33147000Y-35413740D01*
X33147000Y-30314042D01*
X33875000Y-30314042D01*
X33875000Y-30645958D01*
X33939754Y-30971496D01*
X34066772Y-31278147D01*
X34251175Y-31554125D01*
X34485875Y-31788825D01*
X34761853Y-31973228D01*
X35068504Y-32100246D01*
X35394042Y-32165000D01*
X35725958Y-32165000D01*
X36051496Y-32100246D01*
X36358147Y-31973228D01*
X36634125Y-31788825D01*
X36868825Y-31554125D01*
X37053228Y-31278147D01*
X37180246Y-30971496D01*
X37245000Y-30645958D01*
X37245000Y-30314042D01*
X37180246Y-29988504D01*
X37053228Y-29681853D01*
X37018581Y-29630000D01*
X41691928Y-29630000D01*
X41691928Y-31330000D01*
X41704188Y-31454482D01*
X41740498Y-31574180D01*
X41799463Y-31684494D01*
X41878815Y-31781185D01*
X41975506Y-31860537D01*
X42085820Y-31919502D01*
X42166466Y-31943966D01*
X42082412Y-32019731D01*
X41908359Y-32253080D01*
X41783175Y-32515901D01*
X41738524Y-32663110D01*
X41859845Y-32893000D01*
X43053000Y-32893000D01*
X43053000Y-32873000D01*
X43307000Y-32873000D01*
X43307000Y-32893000D01*
X44500155Y-32893000D01*
X44621476Y-32663110D01*
X44576825Y-32515901D01*
X44451641Y-32253080D01*
X44277588Y-32019731D01*
X44193534Y-31943966D01*
X44274180Y-31919502D01*
X44384494Y-31860537D01*
X44481185Y-31781185D01*
X44560537Y-31684494D01*
X44597683Y-31615000D01*
X47125000Y-31615000D01*
X47125001Y-35504242D01*
X47119509Y-35560000D01*
X47125001Y-35615758D01*
X47125001Y-37134892D01*
X47106525Y-37153368D01*
X46944010Y-37396589D01*
X46832068Y-37666842D01*
X46775000Y-37953740D01*
X46775000Y-38246260D01*
X46832068Y-38533158D01*
X46944010Y-38803411D01*
X47106525Y-39046632D01*
X47313368Y-39253475D01*
X47489406Y-39371100D01*
X47259731Y-39542412D01*
X47064822Y-39758645D01*
X46915843Y-40008748D01*
X46818519Y-40283109D01*
X46939186Y-40513000D01*
X48133000Y-40513000D01*
X48133000Y-40493000D01*
X48387000Y-40493000D01*
X48387000Y-40513000D01*
X50673000Y-40513000D01*
X50673000Y-38227000D01*
X50653000Y-38227000D01*
X50653000Y-37973000D01*
X50673000Y-37973000D01*
X50673000Y-37953000D01*
X50927000Y-37953000D01*
X50927000Y-37973000D01*
X50947000Y-37973000D01*
X50947000Y-38227000D01*
X50927000Y-38227000D01*
X50927000Y-40513000D01*
X50947000Y-40513000D01*
X50947000Y-40767000D01*
X50927000Y-40767000D01*
X50927000Y-41960155D01*
X51156890Y-42081476D01*
X51304099Y-42036825D01*
X51566920Y-41911641D01*
X51800269Y-41737588D01*
X51995178Y-41521355D01*
X52064805Y-41404466D01*
X52186525Y-41586632D01*
X52393368Y-41793475D01*
X52636589Y-41955990D01*
X52906842Y-42067932D01*
X53193740Y-42125000D01*
X53486260Y-42125000D01*
X53773158Y-42067932D01*
X54043411Y-41955990D01*
X54286632Y-41793475D01*
X54493475Y-41586632D01*
X54610000Y-41412240D01*
X54726525Y-41586632D01*
X54933368Y-41793475D01*
X55176589Y-41955990D01*
X55446842Y-42067932D01*
X55733740Y-42125000D01*
X56026260Y-42125000D01*
X56313158Y-42067932D01*
X56583411Y-41955990D01*
X56826632Y-41793475D01*
X56845107Y-41775000D01*
X60489869Y-41775000D01*
X64555000Y-45840132D01*
X64555000Y-45866260D01*
X64612068Y-46153158D01*
X64724010Y-46423411D01*
X64886525Y-46666632D01*
X65093368Y-46873475D01*
X65267760Y-46990000D01*
X65093368Y-47106525D01*
X64886525Y-47313368D01*
X64724010Y-47556589D01*
X64612068Y-47826842D01*
X64555000Y-48113740D01*
X64555000Y-48406260D01*
X64612068Y-48693158D01*
X64724010Y-48963411D01*
X64886525Y-49206632D01*
X65093368Y-49413475D01*
X65336589Y-49575990D01*
X65606842Y-49687932D01*
X65893740Y-49745000D01*
X66186260Y-49745000D01*
X66473158Y-49687932D01*
X66743411Y-49575990D01*
X66986632Y-49413475D01*
X67193475Y-49206632D01*
X67355990Y-48963411D01*
X67467932Y-48693158D01*
X67525000Y-48406260D01*
X67525000Y-48113740D01*
X67467932Y-47826842D01*
X67355990Y-47556589D01*
X67193475Y-47313368D01*
X66986632Y-47106525D01*
X66812240Y-46990000D01*
X66986632Y-46873475D01*
X67193475Y-46666632D01*
X67355990Y-46423411D01*
X67467932Y-46153158D01*
X67525000Y-45866260D01*
X67525000Y-45573740D01*
X67467932Y-45286842D01*
X67355990Y-45016589D01*
X67193475Y-44773368D01*
X66986632Y-44566525D01*
X66812240Y-44450000D01*
X66986632Y-44333475D01*
X67193475Y-44126632D01*
X67355990Y-43883411D01*
X67467932Y-43613158D01*
X67525000Y-43326260D01*
X67525000Y-43033740D01*
X67467932Y-42746842D01*
X67355990Y-42476589D01*
X67193475Y-42233368D01*
X66986632Y-42026525D01*
X66812240Y-41910000D01*
X66986632Y-41793475D01*
X67174542Y-41605565D01*
X67794040Y-41605565D01*
X67861020Y-41845656D01*
X68110048Y-41962756D01*
X68377135Y-42029023D01*
X68652017Y-42041910D01*
X68924133Y-42000922D01*
X69183023Y-41907636D01*
X69298980Y-41845656D01*
X69365960Y-41605565D01*
X68580000Y-40819605D01*
X67794040Y-41605565D01*
X67174542Y-41605565D01*
X67193475Y-41586632D01*
X67355990Y-41343411D01*
X67360370Y-41332837D01*
X67374344Y-41358980D01*
X67614435Y-41425960D01*
X68400395Y-40640000D01*
X68759605Y-40640000D01*
X69545565Y-41425960D01*
X69785656Y-41358980D01*
X69902756Y-41109952D01*
X69969023Y-40842865D01*
X69981910Y-40567983D01*
X69940922Y-40295867D01*
X69847636Y-40036977D01*
X69785656Y-39921020D01*
X69545565Y-39854040D01*
X68759605Y-40640000D01*
X68400395Y-40640000D01*
X67614435Y-39854040D01*
X67374344Y-39921020D01*
X67361157Y-39949064D01*
X67355990Y-39936589D01*
X67193475Y-39693368D01*
X67174542Y-39674435D01*
X67794040Y-39674435D01*
X68580000Y-40460395D01*
X69365960Y-39674435D01*
X69298980Y-39434344D01*
X69049952Y-39317244D01*
X68782865Y-39250977D01*
X68507983Y-39238090D01*
X68235867Y-39279078D01*
X67976977Y-39372364D01*
X67861020Y-39434344D01*
X67794040Y-39674435D01*
X67174542Y-39674435D01*
X66986632Y-39486525D01*
X66804466Y-39364805D01*
X66921355Y-39295178D01*
X67137588Y-39100269D01*
X67311641Y-38866920D01*
X67436825Y-38604099D01*
X67481476Y-38456890D01*
X67360155Y-38227000D01*
X66167000Y-38227000D01*
X66167000Y-38247000D01*
X65913000Y-38247000D01*
X65913000Y-38227000D01*
X64719845Y-38227000D01*
X64598524Y-38456890D01*
X64643175Y-38604099D01*
X64768359Y-38866920D01*
X64942412Y-39100269D01*
X65158645Y-39295178D01*
X65275534Y-39364805D01*
X65093368Y-39486525D01*
X64886525Y-39693368D01*
X64724010Y-39936589D01*
X64629614Y-40164482D01*
X61801996Y-37336865D01*
X61766449Y-37293551D01*
X61593623Y-37151716D01*
X61396447Y-37046324D01*
X61182499Y-36981423D01*
X61015752Y-36965000D01*
X61015751Y-36965000D01*
X60960000Y-36959509D01*
X60904249Y-36965000D01*
X57297683Y-36965000D01*
X57260537Y-36895506D01*
X57181185Y-36798815D01*
X57084494Y-36719463D01*
X56974180Y-36660498D01*
X56854482Y-36624188D01*
X56730000Y-36611928D01*
X55030000Y-36611928D01*
X54905518Y-36624188D01*
X54785820Y-36660498D01*
X54675506Y-36719463D01*
X54578815Y-36798815D01*
X54499463Y-36895506D01*
X54475000Y-36941272D01*
X54475000Y-35615752D01*
X54480491Y-35560000D01*
X54458577Y-35337501D01*
X54393676Y-35123553D01*
X54288284Y-34926377D01*
X54146449Y-34753551D01*
X53973623Y-34611716D01*
X53776447Y-34506324D01*
X53562499Y-34441423D01*
X53395752Y-34425000D01*
X53395751Y-34425000D01*
X53340000Y-34419509D01*
X53284248Y-34425000D01*
X49395000Y-34425000D01*
X49395000Y-30535752D01*
X49400491Y-30480000D01*
X49378577Y-30257501D01*
X49313676Y-30043553D01*
X49208284Y-29846377D01*
X49066449Y-29673551D01*
X49013383Y-29630000D01*
X64551928Y-29630000D01*
X64551928Y-31330000D01*
X64564188Y-31454482D01*
X64600498Y-31574180D01*
X64659463Y-31684494D01*
X64738815Y-31781185D01*
X64835506Y-31860537D01*
X64945820Y-31919502D01*
X65018380Y-31941513D01*
X64886525Y-32073368D01*
X64724010Y-32316589D01*
X64612068Y-32586842D01*
X64555000Y-32873740D01*
X64555000Y-33166260D01*
X64612068Y-33453158D01*
X64724010Y-33723411D01*
X64886525Y-33966632D01*
X65093368Y-34173475D01*
X65267760Y-34290000D01*
X65093368Y-34406525D01*
X64886525Y-34613368D01*
X64724010Y-34856589D01*
X64612068Y-35126842D01*
X64555000Y-35413740D01*
X64555000Y-35706260D01*
X64612068Y-35993158D01*
X64724010Y-36263411D01*
X64886525Y-36506632D01*
X65093368Y-36713475D01*
X65275534Y-36835195D01*
X65158645Y-36904822D01*
X64942412Y-37099731D01*
X64768359Y-37333080D01*
X64643175Y-37595901D01*
X64598524Y-37743110D01*
X64719845Y-37973000D01*
X65913000Y-37973000D01*
X65913000Y-37953000D01*
X66167000Y-37953000D01*
X66167000Y-37973000D01*
X67360155Y-37973000D01*
X67481476Y-37743110D01*
X67436825Y-37595901D01*
X67311641Y-37333080D01*
X67137588Y-37099731D01*
X66921355Y-36904822D01*
X66804466Y-36835195D01*
X66986632Y-36713475D01*
X67005107Y-36695000D01*
X67764116Y-36695000D01*
X67918273Y-36798005D01*
X68172510Y-36903314D01*
X68442408Y-36957000D01*
X68717592Y-36957000D01*
X68987490Y-36903314D01*
X69241727Y-36798005D01*
X69470535Y-36645120D01*
X69665120Y-36450535D01*
X69818005Y-36221727D01*
X69923314Y-35967490D01*
X69977000Y-35697592D01*
X69977000Y-35422408D01*
X69923314Y-35152510D01*
X69818005Y-34898273D01*
X69665120Y-34669465D01*
X69470535Y-34474880D01*
X69241727Y-34321995D01*
X68987490Y-34216686D01*
X68717592Y-34163000D01*
X68442408Y-34163000D01*
X68172510Y-34216686D01*
X67918273Y-34321995D01*
X67764116Y-34425000D01*
X67005107Y-34425000D01*
X66986632Y-34406525D01*
X66812240Y-34290000D01*
X66986632Y-34173475D01*
X67193475Y-33966632D01*
X67355990Y-33723411D01*
X67467932Y-33453158D01*
X67525000Y-33166260D01*
X67525000Y-32873740D01*
X67467932Y-32586842D01*
X67355990Y-32316589D01*
X67193475Y-32073368D01*
X67061620Y-31941513D01*
X67134180Y-31919502D01*
X67244494Y-31860537D01*
X67341185Y-31781185D01*
X67420537Y-31684494D01*
X67479502Y-31574180D01*
X67515812Y-31454482D01*
X67528072Y-31330000D01*
X67528072Y-30314042D01*
X71975000Y-30314042D01*
X71975000Y-30645958D01*
X72039754Y-30971496D01*
X72166772Y-31278147D01*
X72351175Y-31554125D01*
X72585875Y-31788825D01*
X72861853Y-31973228D01*
X73168504Y-32100246D01*
X73494042Y-32165000D01*
X73825958Y-32165000D01*
X74151496Y-32100246D01*
X74458147Y-31973228D01*
X74734125Y-31788825D01*
X74968825Y-31554125D01*
X75153228Y-31278147D01*
X75280246Y-30971496D01*
X75345000Y-30645958D01*
X75345000Y-30314042D01*
X75280246Y-29988504D01*
X75153228Y-29681853D01*
X74968825Y-29405875D01*
X74734125Y-29171175D01*
X74458147Y-28986772D01*
X74151496Y-28859754D01*
X73825958Y-28795000D01*
X73494042Y-28795000D01*
X73168504Y-28859754D01*
X72861853Y-28986772D01*
X72585875Y-29171175D01*
X72351175Y-29405875D01*
X72166772Y-29681853D01*
X72039754Y-29988504D01*
X71975000Y-30314042D01*
X67528072Y-30314042D01*
X67528072Y-29630000D01*
X67515812Y-29505518D01*
X67479502Y-29385820D01*
X67420537Y-29275506D01*
X67341185Y-29178815D01*
X67244494Y-29099463D01*
X67134180Y-29040498D01*
X67014482Y-29004188D01*
X66890000Y-28991928D01*
X65190000Y-28991928D01*
X65065518Y-29004188D01*
X64945820Y-29040498D01*
X64835506Y-29099463D01*
X64738815Y-29178815D01*
X64659463Y-29275506D01*
X64600498Y-29385820D01*
X64564188Y-29505518D01*
X64551928Y-29630000D01*
X49013383Y-29630000D01*
X48893623Y-29531716D01*
X48696447Y-29426324D01*
X48482499Y-29361423D01*
X48315752Y-29345000D01*
X48315751Y-29345000D01*
X48260000Y-29339509D01*
X48204248Y-29345000D01*
X44597683Y-29345000D01*
X44560537Y-29275506D01*
X44481185Y-29178815D01*
X44384494Y-29099463D01*
X44274180Y-29040498D01*
X44154482Y-29004188D01*
X44030000Y-28991928D01*
X42330000Y-28991928D01*
X42205518Y-29004188D01*
X42085820Y-29040498D01*
X41975506Y-29099463D01*
X41878815Y-29178815D01*
X41799463Y-29275506D01*
X41740498Y-29385820D01*
X41704188Y-29505518D01*
X41691928Y-29630000D01*
X37018581Y-29630000D01*
X36868825Y-29405875D01*
X36634125Y-29171175D01*
X36358147Y-28986772D01*
X36051496Y-28859754D01*
X35725958Y-28795000D01*
X35394042Y-28795000D01*
X35068504Y-28859754D01*
X34761853Y-28986772D01*
X34485875Y-29171175D01*
X34251175Y-29405875D01*
X34066772Y-29681853D01*
X33939754Y-29988504D01*
X33875000Y-30314042D01*
X33147000Y-30314042D01*
X33147000Y-28067000D01*
X76073000Y-28067000D01*
X76073000Y-70993000D01*
G37*
%TD.AperFunction*%
%TD*%
M02*
